<svg width="40" height="40" viewBox="0 0 40 40" fill="none" xmlns="http://www.w3.org/2000/svg">
<path d="M0 4C0 1.79086 1.79086 0 4 0H36C38.2091 0 40 1.79086 40 4V36C40 38.2091 38.2091 40 36 40H4C1.79086 40 0 38.2091 0 36V4Z" fill="#E0E6E3"/>
<path fill-rule="evenodd" clip-rule="evenodd" d="M26.7707 14.0578L14.1999 26.6285C13.7662 27.0622 13.0981 27.0981 12.7071 26.7071C12.3161 26.3161 12.352 25.648 12.7857 25.2143L25.3565 12.6435C25.7902 12.2098 26.4582 12.1739 26.8492 12.565C27.2403 12.956 27.2044 13.6241 26.7707 14.0578Z" fill="#163A34"/>
<path fill-rule="evenodd" clip-rule="evenodd" d="M24.9422 26.7707L12.3715 14.1999C11.9378 13.7662 11.9019 13.0981 12.2929 12.7071C12.6839 12.3161 13.352 12.352 13.7857 12.7857L26.3565 25.3565C26.7902 25.7902 26.8261 26.4582 26.435 26.8492C26.044 27.2403 25.3759 27.2044 24.9422 26.7707Z" fill="#163A34"/>
</svg>
